<svg id="visual" viewBox="0 0 900 450" width="900" height="450" xmlns="http://www.w3.org/2000/svg" xmlns:xlink="http://www.w3.org/1999/xlink" version="1.1"><path d="M0 60L12.5 61.5C25 63 50 66 75 66.7C100 67.3 125 65.7 150 65.7C175 65.7 200 67.3 225 67.3C250 67.3 275 65.7 300 64.2C325 62.7 350 61.3 375 60.7C400 60 425 60 450 60.7C475 61.3 500 62.7 525 63.3C550 64 575 64 600 63.3C625 62.7 650 61.3 675 60.7C700 60 725 60 750 60.7C775 61.3 800 62.7 825 64.2C850 65.7 875 67.3 887.5 68.2L900 69L900 0L887.5 0C875 0 850 0 825 0C800 0 775 0 750 0C725 0 700 0 675 0C650 0 625 0 600 0C575 0 550 0 525 0C500 0 475 0 450 0C425 0 400 0 375 0C350 0 325 0 300 0C275 0 250 0 225 0C200 0 175 0 150 0C125 0 100 0 75 0C50 0 25 0 12.5 0L0 0Z" fill="#7209b7"></path><path d="M0 145L12.5 145C25 145 50 145 75 143.5C100 142 125 139 150 138.3C175 137.7 200 139.3 225 139.3C250 139.3 275 137.7 300 136.8C325 136 350 136 375 136.8C400 137.7 425 139.3 450 140.2C475 141 500 141 525 141.7C550 142.3 575 143.7 600 143.7C625 143.7 650 142.3 675 142.3C700 142.3 725 143.7 750 144.3C775 145 800 145 825 144.3C850 143.7 875 142.3 887.5 141.7L900 141L900 67L887.5 66.2C875 65.3 850 63.7 825 62.2C800 60.7 775 59.3 750 58.7C725 58 700 58 675 58.7C650 59.3 625 60.7 600 61.3C575 62 550 62 525 61.3C500 60.7 475 59.3 450 58.7C425 58 400 58 375 58.7C350 59.3 325 60.7 300 62.2C275 63.7 250 65.3 225 65.3C200 65.3 175 63.7 150 63.7C125 63.7 100 65.3 75 64.7C50 64 25 61 12.5 59.5L0 58Z" fill="#a300ab"></path><path d="M0 199L12.5 198.3C25 197.7 50 196.3 75 194.8C100 193.3 125 191.7 150 190.8C175 190 200 190 225 189.3C250 188.7 275 187.3 300 186.7C325 186 350 186 375 187.5C400 189 425 192 450 192.7C475 193.3 500 191.7 525 191.7C550 191.7 575 193.3 600 193.3C625 193.3 650 191.7 675 191.7C700 191.7 725 193.3 750 194.8C775 196.3 800 197.7 825 197.7C850 197.7 875 196.3 887.5 195.7L900 195L900 139L887.5 139.7C875 140.3 850 141.7 825 142.3C800 143 775 143 750 142.3C725 141.7 700 140.3 675 140.3C650 140.3 625 141.7 600 141.7C575 141.7 550 140.3 525 139.7C500 139 475 139 450 138.2C425 137.3 400 135.7 375 134.8C350 134 325 134 300 134.8C275 135.7 250 137.3 225 137.3C200 137.3 175 135.7 150 136.3C125 137 100 140 75 141.5C50 143 25 143 12.5 143L0 143Z" fill="#c6009f"></path><path d="M0 325L12.5 324.3C25 323.7 50 322.3 75 320.8C100 319.3 125 317.7 150 316.2C175 314.7 200 313.3 225 313.3C250 313.3 275 314.7 300 316.8C325 319 350 322 375 324.3C400 326.7 425 328.3 450 325.3C475 322.3 500 314.7 525 311.7C550 308.7 575 310.3 600 312.7C625 315 650 318 675 319.5C700 321 725 321 750 321.7C775 322.3 800 323.7 825 325.2C850 326.7 875 328.3 887.5 329.2L900 330L900 193L887.5 193.7C875 194.3 850 195.7 825 195.7C800 195.7 775 194.3 750 192.8C725 191.3 700 189.7 675 189.7C650 189.7 625 191.3 600 191.3C575 191.3 550 189.7 525 189.7C500 189.7 475 191.3 450 190.7C425 190 400 187 375 185.5C350 184 325 184 300 184.7C275 185.3 250 186.7 225 187.3C200 188 175 188 150 188.8C125 189.7 100 191.3 75 192.8C50 194.3 25 195.7 12.5 196.3L0 197Z" fill="#e10a92"></path><path d="M0 451L12.5 451C25 451 50 451 75 451C100 451 125 451 150 451C175 451 200 451 225 451C250 451 275 451 300 451C325 451 350 451 375 451C400 451 425 451 450 451C475 451 500 451 525 451C550 451 575 451 600 451C625 451 650 451 675 451C700 451 725 451 750 451C775 451 800 451 825 451C850 451 875 451 887.5 451L900 451L900 328L887.5 327.2C875 326.3 850 324.7 825 323.2C800 321.7 775 320.3 750 319.7C725 319 700 319 675 317.5C650 316 625 313 600 310.7C575 308.3 550 306.7 525 309.7C500 312.7 475 320.3 450 323.3C425 326.3 400 324.7 375 322.3C350 320 325 317 300 314.8C275 312.7 250 311.3 225 311.3C200 311.3 175 312.7 150 314.2C125 315.7 100 317.3 75 318.8C50 320.3 25 321.7 12.5 322.3L0 323Z" fill="#f72585"></path></svg>